<?xml version="1.0" encoding="UTF-8"?>
<svg id="Layer_1" data-name="Layer 1" xmlns="http://www.w3.org/2000/svg" version="1.1" viewBox="0 0 300.8 118.7">
  <defs>
    <style>
      .cls-1 {
        fill: #fff;
        stroke-width: 0px;
      }
    </style>
  </defs>
  <g id="Layer_1-2" data-name="Layer 1">
    <g>
      <polygon class="cls-1" points="158.6 24.1 153.5 24.1 150.6 28.7 155.7 28.7 158.6 24.1"/>
      <path class="cls-1" d="M107.4,23.6c-5.1-1.3-13.7,7.5-17.3,14.6-2.2,4.4-3.2,9.9.8,11.4s10.7-5.8,12.3-7.9,4.2-6.3,4.2-6.3c0,0,.8-.2,1.3-.3.5-.1,1.4-.4,1.4-.4,0,0-1,1.7-1.9,3.5-1,2.1-3.9,9.1,1.6,11.2,5.2,2,12.7-6.4,13-6.5,0,0-2.2,5.7,1.2,6.6,3.8,1,7.9-3.9,7.9-3.9,0,0-.9,3.6,2.1,4,5.3.6,14.6-12.9,14.6-12.9h-1.9s-4.7,6.1-7,7.4-1.5-1-.8-2c.8-1.3,10.9-18.1,10.9-18.1h-5.3l-.6,1s-1.1-1.7-2.9-1.6c-5.4.3-11.7,8.9-14.5,12.6-2.8,3.8-8.8,10.9-12,9.7-3.5-1.4,0-7.8,2.3-11.6,2.5-4.1,6.9-8.2,8.6-8.2,2.1,0,1.3,1.9,1.3,1.9,0,0-1.6-.2-2.8,1.3-.8,1-1.5,2.5-.7,3.4,1.3,1.3,2.9,0,3.9-1.5,3.1-4.7.8-7.1-1.6-7.5-5.1-.8-9.8,5.8-13.4,8.2-2.5,1.7-3.5,1.6-3.5,1.6,0,0,4.3-8.5-.9-9.8h0ZM130.5,38.7c1.5-2.8,3.7-5.6,6.4-9s4.1-3.7,4.9-3.7c.7,0,.8.8.8.8,0,0-6,10.4-8.1,13.3-.7,1-1.3,1.8-1.8,2.4-1.1,1.3-2,1.9-2.6,2.1-.3,0-.7,0-1-.1-1-.6-.2-2.8,1.5-5.9h0ZM105.3,35.3c0,.2-1.8,3-3.2,4.8-1.5,2-4.4,4.9-6.1,4.3-2.6-1,.2-6.7,2.1-9.5,1.9-2.8,2.2-3.2,2.2-3.2,0,0,.1-.1.2,0s.6,1.3,2,2.2,2.7,1.2,2.8,1.3c0,0,.2,0,0,.2h0ZM107.5,30.9c-.5,1.3-.9,2.1-1,2.3-.1.3-.5.2-.5.2-.4,0-3.7-.8-3.6-3.4,0-2.5,3.6-5,5-4,1.3,1,.7,3.5.2,4.8Z"/>
      <path class="cls-1" d="M171.7,36.3c-2.7.2-7.4,2.6-9.9,7.8-2.6,5.2-2.6,8.4-2.6,8.4,0,0,1.3-1.5,3.4-3,2.1-1.6,3.6-2.1,3.6-2.1,0,0,.4-1.9,1.3-3.9.9-1.9,2.4-4,4.2-4.4,3.7-.9,1.9,5.8-.8,10.2-1.5,2.4-6.6,9.2-11.1,9.2s-5.3-4.3-4.4-8.3c.9-4,2.2-9.1,8.7-18.4,6.5-9.3,13.6-14.8,17.6-17.1,4.2-2.4,5.9-1.3,5.9-1.3,0,0-5.4,3.3-8.4,7.3-2.9,3.8-4.6,8-3.3,10.1,1.3,2,5.8,2,10.8-5.2,4.9-7.1,3.7-11.3,3.7-11.3,0,0,.6-.2,1-.3,2.4-.3,4.3.3,7.3,1.8,3.1,1.6,6.1,4.2,10.2,6.3,1.2-1.3,2.6-2.8,4.1-4.2-5.5-2.7-9.7-6.5-15.1-6.9-4.7-.3-8.4,1.4-8.4,1.4,0,0-1.4-2-5.9-1.3-4.4.6-18.1,6.4-29.7,25-10.5,16.8-5.6,26.5,2,26.4,8.2-.1,16-9.2,18.6-16.7,2.6-7.5-.5-9.6-2.9-9.4h0ZM187.8,20.6c-1.4,3.4-3.4,5.7-5.4,7.5-2.6,2.3-4,2.2-4.6,1.8-1.6-1.2.5-5.8,4.2-9.8,3.7-4.1,6.9-5.3,6.9-5.3,0,0,.5,1.9-1.1,5.9h0Z"/>
      <path class="cls-1" d="M135.4,56.9c-3.2-2-7.4-3.3-12.2-3.3-12.3-.1-25.7,5.9-34.7,5.9-10.7,0-11.2-8.1-10.4-12.6,1.7-9.7,8.6-19,13-23.9,4.4-4.9,9.1-8.7,12.9-9.7,3.9-1,3.5,2,3,2.4-.5,0-1.4.1-2,.5-.8.6-1.9,1.6-2,3.3-.1,2.6,3.2,3,5.6-2.4,1.6-3.7-1-6.2-3.1-6.4-3-.3-7.5.7-12.9,4.2-9.4,6-21.9,19.4-22.3,34.3-.2,8.5,5.4,13.3,12.9,13.3s17.9-4.7,28-4.8c6.2,0,10.3,2.1,12.3,5.7,0,0,2-3.4,6.6-3.6,4.5-.2,9.4,1.1,13.5,3.9-1.3-1.9-5.2-4.8-8.4-6.8h0Z"/>
      <path class="cls-1" d="M229.4,36.9h-5.3l-.9,1.3s-1.1-2-2.9-1.9c-3.2,0-6.3,2.5-10,6.6-2.7,3.1-7.2,9.9-7.2,9.9,0,0-3.4,5.3-5.2,4.9-3-.7,2.5-11.6,2.5-11.6,0,0,2.9-1.8,6.6-4.9,2.3-2,5-4.7,7.5-7.2,2.2-2.3,4.9-5.4,7.4-8.7-.6,0-1.3.2-2,.2-2.2,3-4.7,5.6-6.7,7.7-3,3.2-5.8,5.7-7.9,7.4-1.9,1.6-3.2,2.3-3.2,2.3,0,0,3.7-7.6,9.9-16.1,6.2-8.4,14.9-16.3,14.2-12.6-.2,1.1-.9,2.6-1.9,4.4.7-.1,1.4-.3,2-.5,1.5-3.1,2-5.6.9-6.3-4.5-3-16.1,9.4-21.9,16.6-5.8,7.2-11,18.2-11,18.2,0,0-.9.4-1.9.6-.6.1-.9,0-1,0,0,0,0,0,0,0,0,0,5.1-9.5-.1-10.8-5-1.2-13.8,8.1-16.9,14.6-2.1,4.4-3.3,10.1.3,11.4,4,1.4,10.7-5.8,12.3-7.9,1.6-2.1,3.5-5.6,3.5-5.6,0,0,1,0,1.5-.1,1-.1,1.5-.3,1.5-.3,0,0-.6,1.7-1.4,3.9-1.3,4.1-2.5,9.8,2.2,10.1,3,.2,7.5-5.3,7.5-5.3,0,0-1.2,4.9,2.7,5.3,2.9.3,7.1-4.2,7.1-4.2,0,0-.9,3.9,2,4.2,2.5.3,6.1-2.7,9-5.9,3.2-3.5,5.7-7.4,5.7-7.4h-1.9s-4.1,6.3-7,7.9c-2.4,1.4-1.6-.8-.8-2,.8-1.3,10.7-18.2,10.7-18.2h0ZM188.7,48.7c0,.2-1.4,2.5-2.8,4.3-1.5,2-4.4,4.9-6,4.3-2.6-1,.3-6.8,2.2-9.5,1.9-2.8,2.1-3,2.2-3.1,0,0,.1-.1.2,0s.6,1.2,1.9,2.2c1.2,1,2.4,1.5,2.5,1.6,0,0,.2,0,0,.2h0ZM189.9,46.6c-.2.3-.3.3-.6.2-.6-.2-3.2-1.3-3.1-3.9,0-2.5,3.6-5,5-4,1.3,1,.7,3.5.2,4.8-.5,1.3-1.3,2.7-1.4,2.9h0ZM214.1,52.9c-.7,1-1.3,1.8-1.8,2.5-1.1,1.3-1.9,1.9-2.5,2.1-.3,0-.7,0-1-.1-1-.6-.3-2.9,1.4-6,1.6-2.8,3.3-5.7,6.3-8.9,2.9-3.3,4.1-3.4,4.9-3.4.7,0,.8.8.8.8,0,0,0,.2-.2.4-1,1.7-5.9,10.1-7.8,12.7h0Z"/>
      <path class="cls-1" d="M233.5,15.7c-3.8,2.4-8.9,4.6-13.9,4.1-1.3,1.3-2.6,2.8-4,4.5,8.7,1.7,16.2-3.7,20.3-8.2,2.5-2.8,3.8-5.4,3.8-5.4,0,0-2.4,2.6-6.1,5Z"/>
      <path class="cls-1" d="M225.5,60.4c0,0,0-.2,0-.3,0-.2,0-.3-.2-.4,0-.1-.2-.2-.4-.2h-1v1.7h.4v-.6h.3l.4.6h.5l-.5-.7c.1,0,.2-.1.2-.2h0ZM225.1,60.3s0,0-.1,0h-.5v-.3h.5s0,0,.1,0c0,0,0,0,0,.1s0,0,0,.1h0Z"/>
      <path class="cls-1" d="M225.8,58.8c-.3-.2-.6-.3-1-.3s-.7,0-1,.3c-.3.2-.5.4-.7.7-.2.3-.3.6-.3,1s0,.7.3,1c.2.3.4.5.7.7.3.2.6.3,1,.3s.7,0,1-.3.5-.4.7-.7c.2-.3.3-.6.3-1s0-.7-.3-1c-.2-.3-.4-.5-.7-.7ZM226.2,61.3c-.1.2-.3.4-.6.6-.2.1-.5.2-.8.2s-.6,0-.8-.2c-.2-.1-.4-.3-.6-.6-.1-.2-.2-.5-.2-.8s0-.6.2-.8.3-.4.6-.6c.2-.1.5-.2.8-.2s.6,0,.8.2c.2.1.4.3.6.6.1.2.2.5.2.8s0,.6-.2.8h0Z"/>
      <polygon class="cls-1" points="52.8 84.9 52.5 87.6 58 87.6 55.7 106.4 58.8 106.4 61.1 87.6 66.6 87.6 67 84.9 52.8 84.9"/>
      <path class="cls-1" d="M79.4,84.9h-6.1c-2.1,0-4.1,1.7-4.3,3.8l-2.2,17.7h3.1l1-8.2h7.7l-1,8.2h3.1l2.2-17.7c.3-2.1-1.2-3.8-3.4-3.8ZM78.9,95.5h-7.7l.8-6.5c0-.8.8-1.4,1.6-1.4h4.9c.8,0,1.3.6,1.2,1.4l-.8,6.5Z"/>
      <path class="cls-1" d="M96.3,84.9h-6.1c-2.1,0-4.1,1.7-4.3,3.8l-.5,4c-.2,1.5.7,2.9,2.1,3.3l7.2,2c.5.1.7.6.7,1l-.4,3.3c0,.8-.8,1.4-1.6,1.4h-4.9c-.8,0-1.3-.6-1.2-1.4l.3-2.7h-3.1l-.4,3c-.3,2.1,1.2,3.8,3.4,3.8h6.1c2.1,0,4.1-1.7,4.3-3.8l.5-3.9c.2-1.5-.7-2.9-2.1-3.3l-7.2-2c-.5-.1-.8-.6-.7-1l.4-3.3c0-.8.8-1.4,1.6-1.4h4.9c.8,0,1.3.6,1.2,1.4l-.3,2.7h3.1l.4-3c.3-2.1-1.2-3.8-3.4-3.8h0Z"/>
      <polygon class="cls-1" points="102.5 84.9 102.1 87.6 107.7 87.6 105.4 106.4 108.4 106.4 110.7 87.6 116.3 87.6 116.6 84.9 102.5 84.9"/>
      <polygon class="cls-1" points="116.4 106.4 129 106.4 129.4 103.7 119.8 103.7 120.6 97 128.9 97 129.3 94.3 121 94.3 121.8 87.6 131.3 87.6 131.7 84.9 119.1 84.9 116.4 106.4"/>
      <path class="cls-1" d="M144.7,84.9h-10l-2.6,21.5h10c2.1,0,4.1-1.7,4.3-3.8l.5-4.1c0-.6.1-2.5-1.6-2.8,1.8-.3,2.2-2.2,2.3-2.8l.5-4.1c.3-2.1-1.2-3.8-3.4-3.8h0ZM143.8,98.4l-.5,3.9c0,.8-.8,1.4-1.6,1.4h-6.3l.8-6.7h6.2c.5,0,1.4.3,1.3,1.4h0ZM144.5,92.8c-.1,1.1-1.1,1.4-1.5,1.4h-6.3l.8-6.7h6.3c.8,0,1.3.6,1.2,1.4l-.5,3.9h0Z"/>
      <path class="cls-1" d="M159.9,102.8c0,.5-.5.8-.9.8h-5.7c-.5,0-.8-.4-.7-.8l2.2-18h-3.1l-2.3,18.4c-.2,1.7,1,3.1,2.7,3.1h7.4c1.7,0,3.2-1.4,3.4-3.1l2.3-18.4h-3.1l-2.2,18h0Z"/>
      <path class="cls-1" d="M178.2,84.9h-10l-2.6,21.5h10c2.1,0,4.1-1.7,4.3-3.8l1.7-13.8c.3-2.1-1.2-3.8-3.4-3.8h0ZM176.9,102.3c0,.8-.8,1.4-1.6,1.4h-6.3l2-16.1h6.3c.8,0,1.3.6,1.2,1.4l-1.6,13.3Z"/>
      <polygon class="cls-1" points="204.2 98.4 199.9 84.9 196.8 84.9 194.2 106.4 197.3 106.4 199 92.1 202.8 103.2 204.5 103.2 211 92.1 209.2 106.4 212.3 106.4 215 84.9 211.9 84.9 204.2 98.4"/>
      <path class="cls-1" d="M228,84.9h-6.1c-2.1,0-4.1,1.7-4.3,3.8l-2.2,17.7h3.1l1-8.2h7.7l-1,8.2h3.1l2.2-17.7c.3-2.1-1.2-3.8-3.4-3.8ZM227.5,95.5h-7.7l.8-6.5c0-.8.8-1.4,1.6-1.4h4.9c.8,0,1.3.6,1.2,1.4l-.8,6.5h0Z"/>
      <path class="cls-1" d="M244.9,84.9h-10l-2.6,21.5h3.1l1-8.2h6.9c2.1,0,4.1-1.7,4.3-3.8l.7-5.7c.3-2.1-1.2-3.8-3.4-3.8ZM244.6,94.1c0,.8-.8,1.4-1.6,1.4h-6.3l1-7.9h6.3c.8,0,1.3.6,1.2,1.4l-.6,5.2h0Z"/>
    </g>
  </g>
</svg>