<svg xmlns="http://www.w3.org/2000/svg" role="img" width="36" height="36" viewBox="0 0 36 36">
                <title>Dismiss</title>
                <path fill-rule="evenodd" clip-rule="evenodd" d="M12.6763 11.2621C12.2858 10.8716 11.6527 10.8716 11.2621 11.2621C10.8716 11.6527 10.8716 12.2858 11.2621 12.6763L16.5858 18L11.2621 23.3237C10.8716 23.7142 10.8716 24.3474 11.2621 24.7379C11.6527 25.1284 12.2858 25.1284 12.6764 24.7379L18 19.4142L23.3237 24.7379C23.7142 25.1284 24.3474 25.1284 24.7379 24.7379C25.1284 24.3474 25.1284 23.7142 24.7379 23.3237L19.4142 18L24.7379 12.6763C25.1284 12.2858 25.1284 11.6527 24.7379 11.2621C24.3474 10.8716 23.7142 10.8716 23.3237 11.2621L18 16.5858L12.6763 11.2621Z" fill-opacity="0.4"></path>
            </svg>